Simulation
nRows=27
nColumns=15
endheader
time  TH_x TH_y TH_z SC_y  SC_z  SC_x  AC_y  AC_z  AC_x  GH_y  GH_z  GH_yy  EL_x  PS_y
0.0  0.000000  0.000000  0.000000  -22.894734059597386  2.4277686652738257  -6.3343211614495845  51.41871230828476  12.87316666161268  11.212302165467586  52.49271892386313  -6.31107359325966  0.8063483736229052  22.025061479857317  120.000000
0.02849999999999998  0.000000  0.000000  0.000000  -22.59674781006108  2.54699536957662  -7.3784334062282  51.0351073888978  13.864410850801406  11.70211100474671  53.270770984980345  -5.2459386730466875  -0.652801427953595  21.294037577548504  120.000000
0.05699999999999996  0.000000  0.000000  0.000000  -22.35426335184607  2.591330446362842  -8.462341652872336  50.67301096470585  14.828817420542276  12.290880942581927  54.05911835467753  -4.114531727128934  -2.072681271736428  20.58692322841076  120.000000
0.08549999999999994  0.000000  0.000000  0.000000  -22.19066844010733  2.6071634218102453  -9.574167004843371  50.32592350478845  15.804437040988502  12.96786832581413  54.840038573766826  -2.8658693213996846  -3.4540627060521687  19.926579547838184  120.000000
0.11399999999999992  0.000000  0.000000  0.000000  -22.119045366370226  2.6397085238854983  -10.705650919822775  49.98418949635152  16.822734548453326  13.70656532984529  55.58647466407559  -1.4603657339766871  -4.810910169708261  19.344281589102767  120.000000
0.1424999999999999  0.000000  0.000000  0.000000  -22.132464430496892  2.7109817966574195  -11.845561146216184  49.64828106691993  17.89548208089869  14.473603053011622  56.275068042591315  0.1389822844660497  -6.157662382299564  18.839331652692305  120.000000
0.17099999999999987  0.000000  0.000000  0.000000  -22.214417528748005  2.8113576310354094  -12.964325225251518  49.31839718347181  19.00071647538942  15.234279101846612  56.86852467439595  1.9538318178498972  -7.520989334042115  18.401142381218076  120.000000
0.19949999999999987  0.000000  0.000000  0.000000  -22.34618076962883  2.9240029762815873  -14.023287428075232  48.99789262976582  20.10837251774512  15.974893876444643  57.324382459642514  3.9730248078976182  -8.926336456285993  18.02686568336825  120.000000
0.22799999999999984  0.000000  0.000000  0.000000  -22.507394426863847  3.038014225154726  -14.987617629290156  48.69756073656364  21.20295945699174  16.700041824531755  57.61794084517111  6.15955945466506  -10.37486264705766  17.71954711921117  120.000000
0.25649999999999984  0.000000  0.000000  0.000000  -22.679800400978458  3.1421640470272965  -15.834028399659331  48.42858623494548  22.280957761096868  17.408209515568235  57.73628443452556  8.47407327715081  -11.85218446686351  17.486631392320735  120.000000
0.2849999999999998  0.000000  0.000000  0.000000  -22.851346114926674  3.2323893032334348  -16.551570873637434  48.199478654395975  23.342522896956538  18.088220280054127  57.66795288773633  10.880491506988385  -13.342272615331078  17.34057234321451  120.000000
0.3134999999999998  0.000000  0.000000  0.000000  -23.019822194177348  3.314463153544036  -17.13597374680149  48.016472540966035  24.38665204492518  18.726866471871105  57.41222568390905  13.34571116653327  -14.821939338062512  17.287464950418528  120.000000
0.34199999999999975  0.000000  0.000000  0.000000  -23.191196203763706  3.393824466980574  -17.588392782558685  47.88084216239533  25.413207734709225  19.312423720632165  56.98218337678905  15.84220180710276  -16.26369782785431  17.325442517875352  120.000000
0.3704999999999997  0.000000  0.000000  0.000000  -23.376036076798766  3.472800811474699  -17.911639673401805  47.79021468572522  26.42008193097533  19.839007805753386  56.40434000921228  18.348144622577358  -17.639569557840883  17.44218229298918  120.000000
0.39899999999999974  0.000000  0.000000  0.000000  -23.584101250680533  3.5509149124388224  -18.11005123505708  47.74196111527579  27.401571293139583  20.30756475110577  55.71183121490023  20.847299642217344  -18.93185925754191  17.617775768501044  120.000000
0.4274999999999997  0.000000  0.000000  0.000000  -23.82264759268553  3.6249371326523017  -18.19050954868846  47.735510428978245  28.349709307228096  20.723411911383213  54.93873687520323  23.328300455961777  -20.13671966892029  17.82957936615279  120.000000
0.4559999999999997  0.000000  0.000000  0.000000  -24.0958064106175  3.69201462742781  -18.162799283753504  47.77285629708402  29.257949759842024  21.092047817365643  54.118799155543435  25.781999100137583  -21.26110140256198  18.057660319641677  120.000000
0.48449999999999965  0.000000  0.000000  0.000000  -24.4045331867914  3.751885984417735  -18.038648782899667  47.85533607103215  30.122519436305904  21.416150196085532  53.28224667507462  28.197749825428062  -22.317577245682084  18.2904900444916  120.000000
0.5129999999999997  0.000000  0.000000  0.000000  -24.747979367450522  3.80578881807268  -17.829713132024352  47.979680557802304  30.94197097822561  21.69574562079235  52.45344740947529  30.56044883716077  -23.320173011252653  18.52592575633646  120.000000
0.5414999999999996  0.000000  0.000000  0.000000  -25.12354928183219  3.8546360154883272  -17.545496327440063  48.13593756266922  31.71506700637774  21.93016271265475  51.64951703839573  32.850253611113644  -24.281523864792575  18.769991680160288  120.000000
0.5699999999999996  0.000000  0.000000  0.000000  -25.526378816130862  3.898518219578701  -17.192692575569012  48.308922040662274  32.43953050402597  22.119637842773585  50.88106171386106  35.04531426541869  -25.212450340132847  19.03253780189729  120.000000
0.5984999999999996  0.000000  0.000000  0.000000  -25.94898555723632  3.938645193836947  -16.775660532948407  48.481778146640195  33.111645313690474  22.265820083824053  50.154428017054485  37.12567025200826  -26.12271666117509  19.32210279505755  120.000000
0.6269999999999996  0.000000  0.000000  0.000000  -26.38146070610646  3.9791287590716515  -16.29642063878588  48.63774557800454  33.726376953937326  22.372342820837822  49.47443985388377  39.07579781425349  -27.02139487344545  19.64245304663153  120.000000
0.6554999999999995  0.000000  0.000000  0.000000  -26.81235605257574  4.027484951317246  -15.753840533410742  48.761133470290964  34.27777408408945  22.446004416745428  48.84533012594958  40.88486153436027  -27.917754727620416  19.990914126775643  120.000000
0.6839999999999995  0.000000  0.000000  0.000000  -27.230244711943275  4.095470996039369  -15.14325136841775  48.83837874321475  34.76026777410311  22.49661575090706  48.26941463407396  42.54652965765378  -28.82147048569902  20.35931901774414  120.000000
0.7124999999999995  0.000000  0.000000  0.000000  -27.62494067059562  4.197623853687036  -14.455473824174948  48.85840351640201  35.17118941367937  22.53695744745435  47.74524644839912  44.05582670105455  -29.74013826729117  20.73700342179015  120.000000
0.7409999999999994  0.000000  0.000000  0.000000  -27.9875529492289  4.347185941251172  -13.676964431667587  48.81377981778973  35.51189826878658  22.581842001091804  47.265078190444505  45.40638910667261  -30.676183319255482  21.114523963692143  120.000000
